<svg xmlns="http://www.w3.org/2000/svg" viewBox="0 0 1700 860" font-family="Helvetica, Arial, sans-serif">
<rect x="0" y="0" width="1700" height="860" fill="#ffffff"/>
<text x="850.0" y="32" text-anchor="middle" font-size="20" fill="#111827" font-weight="700">Hybrid H state &#8594; H+SR state, all 16,663 ground-truth file instances</text>
<text x="850.0" y="58" text-anchor="middle" font-size="15" fill="#374151" font-style="italic">Band width is proportional to N; percentages are of the full 16,663-instance population.</text>
<path d="M286,90.0 C863.0,90.0 863.0,407.95126927924144 1440,407.95126927924144 L1440,505.4319150213047 C863.0,505.4319150213047 863.0,187.48064574206325 286,187.48064574206325 Z" fill="#ef4444" opacity="0.55" stroke="none"/>
<path d="M286,221.48064574206325 C863.0,221.48064574206325 863.0,90.0 1440,90.0 L1440,125.1941427113965 C863.0,125.1941427113965 863.0,256.67478845345977 286,256.67478845345977 Z" fill="#2563eb" opacity="0.55" stroke="none"/>
<path d="M286,256.67478845345977 C863.0,256.67478845345977 863.0,505.4319150213047 1440,505.4319150213047 L1440,626.8614295144932 C863.0,626.8614295144932 863.0,378.10430294664826 286,378.10430294664826 Z" fill="#f59e0b" opacity="0.55" stroke="none"/>
<path d="M286,412.1043029466482 C863.0,412.1043029466482 863.0,125.1941427113965 1440,125.1941427113965 L1440,373.9512692792414 C863.0,373.9512692792414 863.0,660.8614295144931 286,660.8614295144931 Z" fill="#16a34a" opacity="0.55" stroke="none"/>
<path d="M286,660.8614295144931 C863.0,660.8614295144931 863.0,626.8614295144932 1440,626.8614295144932 L1440,664.0 C863.0,664.0 863.0,697.9999999999999 286,697.9999999999999 Z" fill="#dc2626" opacity="0.55" stroke="none"/>
<rect x="260" y="90" width="26" height="97.5" fill="#fecaca" stroke="#b91c1c" stroke-width="2"/>
<rect x="260" y="221.48064574206325" width="26" height="156.6" fill="#fde68a" stroke="#92400e" stroke-width="2"/>
<rect x="260" y="412.1043029466482" width="26" height="285.9" fill="#bbf7d0" stroke="#166534" stroke-width="2"/>
<rect x="1440" y="90" width="26" height="284.0" fill="#bfdbfe" stroke="#1e3a8a" stroke-width="2"/>
<rect x="1440" y="407.95126927924144" width="26" height="256.0" fill="#e5e7eb" stroke="#374151" stroke-width="2"/>
<text x="246" y="134.74032287103162" text-anchor="end" font-size="17" font-weight="600" fill="#111827">Never in H's</text>
<text x="246" y="154.74032287103162" text-anchor="end" font-size="17" font-weight="600" fill="#111827">top-100</text>
<text x="246" y="182.74032287103162" text-anchor="end" font-size="14" fill="#4b5563">N=3,008</text>
<text x="246" y="285.79247434435575" text-anchor="end" font-size="17" font-weight="600" fill="#111827">In H's window,</text>
<text x="246" y="305.79247434435575" text-anchor="end" font-size="17" font-weight="600" fill="#111827">outside top-10</text>
<text x="246" y="325.79247434435575" text-anchor="end" font-size="17" font-weight="600" fill="#111827">(rank 11–100)</text>
<text x="246" y="353.79247434435575" text-anchor="end" font-size="14" fill="#4b5563">N=4,833</text>
<text x="246" y="561.0521514733241" text-anchor="end" font-size="17" font-weight="600" fill="#111827">In H's top-10</text>
<text x="246" y="589.0521514733241" text-anchor="end" font-size="14" fill="#4b5563">N=8,822</text>
<text x="1480" y="237.97563463962072" text-anchor="start" font-size="17" font-weight="600" fill="#111827">In H+SR's top-10</text>
<text x="1480" y="265.9756346396207" text-anchor="start" font-size="14" fill="#4b5563">N=8,762</text>
<text x="1480" y="541.9756346396207" text-anchor="start" font-size="17" font-weight="600" fill="#111827">Not in H+SR's top-10</text>
<text x="1480" y="569.9756346396207" text-anchor="start" font-size="14" fill="#4b5563">N=7,901</text>
<rect x="0" y="750" width="1700" height="110" fill="#ffffff"/>
<line x1="40" y1="750" x2="1660" y2="750" stroke="#e5e7eb" stroke-width="1.5"/>
<rect x="90.0" y="769" width="22" height="16" fill="#ef4444" opacity="0.7"/>
<text x="122.0" y="782" font-size="15" fill="#111827">A — retrieval/window failure: 3,008 (18.05%)</text>
<rect x="860.0" y="769" width="22" height="16" fill="#f59e0b" opacity="0.7"/>
<text x="892.0" y="782" font-size="15" fill="#111827">in window (11–100), never promoted: 3,747 (22.49%)</text>
<rect x="90.0" y="799" width="22" height="16" fill="#2563eb" opacity="0.7"/>
<text x="122.0" y="812" font-size="15" fill="#111827">C — promotion: 1,086 (6.52%)</text>
<rect x="860.0" y="799" width="22" height="16" fill="#16a34a" opacity="0.7"/>
<text x="892.0" y="812" font-size="15" fill="#111827">D — stable: 7,676 (46.07%)</text>
<rect x="90.0" y="829" width="22" height="16" fill="#dc2626" opacity="0.7"/>
<text x="122.0" y="842" font-size="15" fill="#111827">B — reranking displacement: 1,146 (6.88%)</text>
</svg>